<svg xmlns="http://www.w3.org/2000/svg" viewBox="0 0 64 64">
  <circle cx="32" cy="32" r="32" fill="#0AC18E"/>
  <!-- BCH uses a "B" with a single vertical strike (vs Bitcoin's
       double-strike ₿) on green to distinguish from BTC. -->
  <path d="M44 27.5c.5-3.5-2.1-5.4-5.7-6.7l1.1-4.7-2.9-.7-1.1 4.5c-.7-.2-1.5-.4-2.3-.5l1.1-4.6-2.9-.7-1.2 4.7-1.9-.5-4-1-.7 3.1s2.1.5 2.1.5c1.2.3 1.4 1.1 1.3 1.7l-1.3 5.4c.1 0 .2.1.3.1l-.3-.1-1.8 7.7c-.1.3-.5.9-1.4.7 0 0-2.1-.5-2.1-.5l-1.4 3.3 3.8.9 2 .5-1.2 4.8 2.9.7 1.2-4.7c.8.2 1.6.4 2.3.6L26.7 47l2.9.7 1.2-4.8c4.9.9 8.7.6 10.3-3.9 1.3-3.6 0-5.7-2.6-7.1 1.9-.4 3.3-1.6 3.5-3.9zm-5 9.3c-.9 3.6-7 1.7-9 1.2l1.6-6.2c1.9.5 8.3 1.4 7.4 5zm.9-9.4c-.8 3.3-5.9 1.6-7.5 1.2l1.4-5.7c1.6.4 6.9 1.1 6.1 4.5z" fill="#FFFFFF"/>
</svg>
