<svg xmlns="http://www.w3.org/2000/svg" viewBox="0 0 64 64">
  <circle cx="32" cy="32" r="32" fill="#F7931A"/>
  <path d="M44.8 27.7c.7-4.6-2.8-7.1-7.6-8.7l1.5-6.2-3.8-.9-1.5 6c-1-.2-2-.5-3.1-.7l1.5-6-3.7-.9-1.6 6.2-2.5-.6-5.2-1.3-1 4s2.8.6 2.7.7c1.5.4 1.8 1.4 1.7 2.2l-1.7 7.1.4.1c-.1 0-.3-.1-.4-.1l-2.5 10.1c-.2.5-.7 1.2-1.8.9 0 .1-2.8-.7-2.8-.7l-1.9 4.3 4.9 1.2 2.7.7-1.6 6.3 3.7.9 1.6-6.2c1 .3 2 .5 3 .8l-1.6 6.2 3.8.9 1.6-6.3c6.4 1.2 11.3.7 13.3-5.1 1.6-4.7-.1-7.4-3.5-9.2 2.4-.6 4.3-2.1 4.7-5.3zM38.7 35.2c-1.2 4.7-9.1 2.2-11.6 1.5l2-8c2.6.7 10.7 1.9 9.6 6.5zm1.1-7.6c-1 4.3-7.6 2.1-9.7 1.6l1.9-7.3c2.1.5 8.9 1.5 7.8 5.7z" fill="#FFFFFF"/>
</svg>
